<svg width="264" height="60" viewBox="0 0 264 60" fill="none" xmlns="http://www.w3.org/2000/svg">
<path d="M0 59.2771V0.722892H20.8024L35.284 42.249H35.7641L50.0857 0.722892H70.8881V59.2771H57.9266V36.1446L58.0866 14.6988H57.4465L41.5247 59.2771H29.4433L13.6015 14.6988H12.8815L13.1215 36.3052V59.2771H0Z" fill="white"/>
<path d="M75.6811 59.2771L100.644 0.722892H118.726L143.769 59.2771H128.647L123.847 47.5502H95.4433L90.7228 59.2771H75.6811ZM99.3638 37.1084H120.086L112.485 18.9558L109.925 12.0482H109.445L106.885 18.8755L99.3638 37.1084Z" fill="white"/>
<path d="M148.533 59.2771V0.722892H182.936C187.097 0.722892 190.831 1.28514 194.138 2.40964C197.445 3.53414 200.058 5.35475 201.979 7.87148C203.899 10.3882 204.859 13.7617 204.859 17.992C204.859 21.4726 203.925 24.5248 202.059 27.1486C200.245 29.7189 197.631 31.4324 194.218 32.2892V32.8514C197.365 33.3869 199.685 34.5917 201.178 36.4659C202.672 38.34 203.419 40.9639 203.419 44.3373V52.3695C203.419 53.494 203.445 54.6452 203.499 55.8233C203.605 56.9478 203.925 58.0991 204.459 59.2771H190.457C190.084 58.5274 189.817 57.5904 189.657 56.4659C189.55 55.3414 189.497 53.9759 189.497 52.3695V46.3454C189.497 43.8286 188.884 41.8742 187.657 40.4819C186.483 39.0897 184.137 38.3936 180.616 38.3936H162.454V59.2771H148.533ZM162.454 28.2731H180.136C184.137 28.2731 186.91 27.4699 188.457 25.8635C190.004 24.257 190.777 22.1419 190.777 19.5181C190.777 16.4659 189.791 14.3507 187.817 13.1727C185.843 11.9411 183.283 11.3253 180.136 11.3253H162.454V28.2731Z" fill="white"/>
<path d="M236.637 60C230.183 60 224.876 59.1968 220.715 57.5904C216.555 55.9304 213.461 53.6546 211.434 50.7631C209.407 47.8179 208.367 44.4444 208.314 40.6426H222.875C222.982 43.6948 224.235 46.0776 226.636 47.7912C229.036 49.5047 232.53 50.3614 237.117 50.3614C241.224 50.3614 244.318 49.7189 246.398 48.4337C248.532 47.1486 249.598 45.3548 249.598 43.0522C249.598 41.0709 249.092 39.6252 248.078 38.7149C247.065 37.751 245.491 37.0549 243.358 36.6265C241.224 36.1446 238.424 35.6894 234.957 35.261C229.463 34.6185 224.849 33.6814 221.115 32.4498C217.381 31.2182 214.554 29.4779 212.634 27.2289C210.767 24.9264 209.834 21.8474 209.834 17.992C209.834 12.2624 212.181 7.84471 216.875 4.73896C221.569 1.57965 227.996 0 236.157 0C243.784 0 249.865 1.55288 254.399 4.65864C258.933 7.71084 261.413 12.0482 261.84 17.6707H247.758C247.438 14.8327 246.185 12.7711 243.998 11.4859C241.864 10.2008 239.064 9.55823 235.597 9.55823C231.97 9.55823 229.143 10.174 227.116 11.4056C225.142 12.6372 224.155 14.324 224.155 16.4659C224.155 18.1258 224.609 19.411 225.516 20.3213C226.422 21.178 227.916 21.8474 229.996 22.3293C232.13 22.7577 235.01 23.1861 238.637 23.6145C244.291 24.257 248.985 25.1941 252.719 26.4257C256.506 27.6037 259.333 29.3976 261.2 31.8072C263.067 34.2169 264 37.5904 264 41.9277C264 47.6037 261.653 52.0482 256.959 55.261C252.265 58.4203 245.491 60 236.637 60Z" fill="white"/>
</svg>
