<svg width="657" height="577" viewBox="0 0 657 577" fill="none" xmlns="http://www.w3.org/2000/svg">
<rect x="212.933" y="380.077" width="380.077" height="196.321" rx="31.4113" transform="rotate(-90 212.933 380.077)" fill="#4F80FF"/>
<circle cx="311.094" cy="305.475" r="31.4113" transform="rotate(-90 311.094 305.475)" fill="#85A7FF"/>
<circle cx="311.094" cy="190.038" r="47.117" transform="rotate(-90 311.094 190.038)" fill="white"/>
<circle cx="311.094" cy="74.6018" r="31.4113" transform="rotate(-90 311.094 74.6018)" fill="#85E9FF" fill-opacity="0.4"/>
<rect x="205.866" y="336.578" width="380.077" height="196.321" rx="31.4113" transform="rotate(-61.0714 205.866 336.578)" fill="#4F80FF"/>
<circle cx="327.864" cy="318.767" r="31.4113" transform="rotate(-61.0714 327.864 318.767)" fill="#85A7FF"/>
<circle cx="383.703" cy="217.734" r="47.117" transform="rotate(-61.0714 383.703 217.734)" fill="white"/>
<circle cx="439.542" cy="116.702" r="31.4113" transform="rotate(-61.0714 439.542 116.702)" fill="#85E9FF" fill-opacity="0.4"/>
<rect x="238.062" y="317.647" width="380.077" height="196.321" rx="31.4113" transform="rotate(-39.1386 238.062 317.647)" fill="#4F80FF"/>
<circle cx="357.884" cy="346.693" r="31.4113" transform="rotate(-39.1386 357.884 346.693)" fill="#85E9FF" fill-opacity="0.4"/>
<circle cx="447.419" cy="273.83" r="47.117" transform="rotate(-39.1386 447.419 273.83)" fill="white"/>
<circle cx="536.954" cy="200.967" r="31.4113" transform="rotate(-39.1386 536.954 200.967)" fill="#85E9FF" fill-opacity="0.4"/>
<g filter="url(#filter0_d_0_90)">
<circle cx="236.492" cy="336.889" r="136.492" fill="#85E9FF" stroke="white" stroke-width="16"/>
<path d="M251.415 362.924C251.415 358.838 250.27 355.6 247.978 353.209C245.736 350.768 241.9 348.526 236.47 346.483C231.04 344.441 226.357 342.423 222.421 340.43C218.485 338.388 215.098 336.071 212.258 333.481C209.468 330.84 207.276 327.751 205.682 324.214C204.137 320.677 203.365 316.467 203.365 311.585C203.365 303.166 206.055 296.266 211.436 290.885C216.816 285.505 223.965 282.366 232.883 281.47V265.478H244.839V281.694C253.657 282.939 260.557 286.626 265.539 292.754C270.521 298.832 273.012 306.728 273.012 316.443H251.415C251.415 310.464 250.17 306.005 247.679 303.066C245.238 300.077 241.95 298.582 237.815 298.582C233.73 298.582 230.566 299.753 228.324 302.095C226.083 304.386 224.962 307.575 224.962 311.66C224.962 315.446 226.058 318.485 228.25 320.777C230.442 323.068 234.502 325.41 240.43 327.801C246.409 330.193 251.316 332.459 255.152 334.601C258.988 336.694 262.226 339.085 264.867 341.775C267.507 344.416 269.525 347.455 270.92 350.892C272.315 354.28 273.012 358.241 273.012 362.774C273.012 371.243 270.372 378.118 265.091 383.399C259.81 388.68 252.536 391.794 243.27 392.74V407.611H231.388V392.815C221.175 391.719 213.254 388.107 207.625 381.979C202.045 375.802 199.255 367.606 199.255 357.394H220.852C220.852 363.322 222.247 367.881 225.036 371.069C227.876 374.207 231.936 375.777 237.217 375.777C241.601 375.777 245.064 374.631 247.604 372.339C250.145 369.998 251.415 366.859 251.415 362.924Z" fill="white"/>
</g>
<defs>
<filter id="filter0_d_0_90" x="0.96476" y="105.596" width="471.054" height="471.054" filterUnits="userSpaceOnUse" color-interpolation-filters="sRGB">
<feFlood flood-opacity="0" result="BackgroundImageFix"/>
<feColorMatrix in="SourceAlpha" type="matrix" values="0 0 0 0 0 0 0 0 0 0 0 0 0 0 0 0 0 0 127 0" result="hardAlpha"/>
<feOffset dy="4.2342"/>
<feGaussianBlur stdDeviation="45.5176"/>
<feColorMatrix type="matrix" values="0 0 0 0 0.309804 0 0 0 0 0.501961 0 0 0 0 1 0 0 0 0.16 0"/>
<feBlend mode="normal" in2="BackgroundImageFix" result="effect1_dropShadow_0_90"/>
<feBlend mode="normal" in="SourceGraphic" in2="effect1_dropShadow_0_90" result="shape"/>
</filter>
</defs>
</svg>
