<svg width="56" height="56" viewBox="0 0 56 56" fill="none" xmlns="http://www.w3.org/2000/svg">
<circle cx="28" cy="28" r="28" fill="#6792FF"/>
<path d="M39 19.0101C38.0424 19.6855 36.9821 20.2022 35.86 20.5401C35.2577 19.8476 34.4573 19.3567 33.567 19.134C32.6767 18.9112 31.7395 18.9673 30.8821 19.2945C30.0247 19.6218 29.2884 20.2045 28.773 20.9638C28.2575 21.7231 27.9877 22.6224 28 23.5401V24.5401C26.2426 24.5856 24.5013 24.1959 22.931 23.4055C21.3607 22.6151 20.0103 21.4487 19 20.0101C19 20.0101 15 29.0101 24 33.0101C21.9405 34.408 19.4872 35.109 17 35.0101C26 40.0101 37 35.0101 37 23.5101C36.9991 23.2315 36.9723 22.9537 36.92 22.6801C37.9406 21.6735 38.6608 20.4028 39 19.0101Z" fill="white"/>
</svg>
